Coordinates
version=1
nRows=17
nColumns=24
inDegrees=yes

Units are S.I. units (second, meters, Newtons, ...)
Angles are in degrees.

endheader
time	pelvis_tilt	pelvis_list	pelvis_rotation	pelvis_tx	pelvis_ty	pelvis_tz	hip_flexion_r	hip_adduction_r	hip_rotation_r	knee_angle_r	ankle_angle_r	subtalar_angle_r	mtp_angle_r	hip_flexion_l	hip_adduction_l	hip_rotation_l	knee_angle_l	ankle_angle_l	subtalar_angle_l	mtp_angle_l	lumbar_extension	lumbar_bending	lumbar_rotation
      3.53000000	    -10.07517953	      8.24780873	      1.56558364	     -0.63723117	     -0.02168754	      0.70835154	     43.69165225	    -11.90145194	     -2.45431501	    -64.25058743	    -16.75784964	    -15.15628353	     23.44717786	      4.61520537	     13.03439773	     19.35969836	    -15.92114688	     18.50508509	    -15.24122533	    -43.05532133	      8.72508274	     -9.52196635	     -6.95935281
      3.53500000	    -10.07853230	      8.10446873	      1.64053311	     -0.62998354	     -0.02197668	      0.70809642	     44.12455979	    -11.64094442	     -2.38319334	    -63.05608082	    -16.27776814	    -14.98239166	     22.68348269	      3.97479362	     12.79631676	     19.27357196	    -15.57046187	     18.56736914	    -14.92144875	    -42.62855183	      8.64595038	     -9.32313882	     -7.21256154
      3.54000000	    -10.09107146	      7.97474869	      1.71857733	     -0.62279328	     -0.02231370	      0.70784572	     44.52736859	    -11.38852376	     -2.27329552	    -61.76342337	    -15.91095621	    -14.84777719	     22.29355415	      3.34508042	     12.56796261	     19.23556756	    -15.22236212	     18.65394726	    -14.57740044	    -42.28559478	      8.56347223	     -9.13889124	     -7.47184242
      3.54500000	    -10.04376601	      7.85453617	      1.80419384	     -0.61555391	     -0.02259559	      0.70757975	     44.80205350	    -11.17296442	     -2.20216572	    -60.38414715	    -15.43514247	    -14.63659074	     21.78184511	      2.66260966	     12.33686231	     19.02802714	    -14.87605068	     18.69277209	    -14.11618736	    -41.78523592	      8.41794217	     -8.96044316	     -7.73327472
      3.55000000	    -10.13122806	      7.74686148	      1.86858474	     -0.60828591	     -0.02305426	      0.70730761	     45.19061028	    -10.93523433	     -2.03667972	    -58.91742555	    -15.08773543	    -14.41438131	     21.60686445	      2.10052259	     12.12568249	     18.97908685	    -14.49846107	     18.73521342	    -13.79233379	    -41.54965312	      8.43224320	     -8.78636559	     -7.93241222
      3.55500000	    -10.07701324	      7.63377145	      1.95635779	     -0.60110375	     -0.02343778	      0.70716279	     45.37334302	    -10.70352377	     -1.91129582	    -57.43508773	    -14.36209927	    -13.96270946	     20.31653742	      1.45916017	     11.87255384	     18.57325511	    -14.21613561	     18.30370516	    -13.08859162	    -39.10183444	      8.26344033	     -8.62503865	     -8.22542751
      3.56000000	     -9.99978911	      7.54286159	      1.99333186	     -0.59389618	     -0.02376489	      0.70694135	     45.47589700	    -10.47804300	     -1.70923170	    -55.78772647	    -13.99212561	    -13.72397351	     20.39890624	      0.74815635	     11.65250628	     18.38576265	    -13.87399698	     18.40159527	    -12.50302048	    -38.81239012	      8.07499294	     -8.45521792	     -8.42650291
      3.56500000	     -9.92859543	      7.44203936	      2.03546497	     -0.58665037	     -0.02411001	      0.70672903	     45.53069577	    -10.25315336	     -1.52248727	    -54.07942025	    -13.55415895	    -13.44560624	     20.18116452	      0.06195188	     11.41518225	     18.12672142	    -13.56255843	     18.46599120	    -11.82767091	    -38.33996613	      7.89797447	     -8.27729121	     -8.65447742
      3.57000000	     -9.84000307	      7.33759576	      2.07346473	     -0.57940699	     -0.02444520	      0.70653530	     45.52167917	    -10.01796733	     -1.30738609	    -52.32004203	    -13.09188109	    -13.14578001	     19.69256859	     -0.62500093	     11.16479538	     17.74398772	    -13.26323126	     18.44580593	    -11.07281999	    -37.57377472	      7.69125394	     -8.08856181	     -8.90314452
      3.57500000	     -9.78696414	      7.24580250	      2.11788569	     -0.57206765	     -0.02487882	      0.70631310	     45.50145262	     -9.81315178	     -1.09781228	    -50.51076943	    -12.55232261	    -12.84045557	     19.24847805	     -1.27598355	     10.92806461	     17.42103493	    -12.98273080	     18.42254296	    -10.29001447	    -36.75711277	      7.53977179	     -7.90637766	     -9.07352597
      3.58000000	     -9.86766761	      7.13659374	      2.16954408	     -0.56467725	     -0.02550725	      0.70620675	     45.60077568	     -9.56811559	     -0.85031629	    -48.72396453	    -11.86420185	    -12.41201603	     17.80934591	     -1.73499061	     10.65457276	     16.76019691	    -12.71784002	     17.33369849	     -9.46172247	    -32.31261772	      7.54391294	     -7.72897024	     -9.27923496
      3.58500000	     -9.74770416	      7.03633383	      2.19974076	     -0.55733315	     -0.02586995	      0.70597881	     45.41564534	     -9.36205750	     -0.61117531	    -46.78052435	    -11.57134125	    -12.33089454	     17.91292595	     -2.43009537	     10.40382139	     16.38926461	    -12.48199861	     17.42581629	     -8.57655408	    -31.95112609	      7.30905982	     -7.52715974	     -9.49040278
      3.59000000	     -9.67383553	      6.92672906	      2.24938315	     -0.54990884	     -0.02631576	      0.70576099	     45.24226152	     -9.15908192	     -0.37079861	    -44.84296293	    -11.15501307	    -12.15572329	     17.57128228	     -3.04530399	     10.13891536	     15.93169210	    -12.30498640	     17.47609550	     -7.56146243	    -31.29699960	      7.13331743	     -7.32139439	     -9.70653559
      3.59500000	     -9.66464238	      6.72678709	      2.33117683	     -0.54232837	     -0.02686664	      0.70561243	     45.07806341	     -8.88733054	     -0.18837360	    -42.90990768	    -10.59319634	    -11.92758412	     16.61880731	     -3.55596436	      9.74321543	     15.11097592	    -12.08131285	     15.95920080	     -6.54429087	    -25.27088013	      7.05175719	     -7.03228026	     -9.92422047
      3.60000000	     -9.64500737	      6.65912662	      2.39590368	     -0.53481196	     -0.02746264	      0.70538152	     44.91497160	     -8.73597108	      0.12695984	    -40.98349630	    -10.16592050	    -11.69965910	     16.38118406	     -4.06870476	      9.52937856	     14.62059778	    -12.00520720	     16.11184686	     -5.39885805	    -24.92922175	      6.94517274	     -6.86640204	    -10.12842654
      3.60500000	     -9.66512519	      6.49796211	      2.46274770	     -0.52709464	     -0.02813161	      0.70527797	     44.75095403	     -8.48002841	      0.43790633	    -39.13800948	     -9.37164657	    -11.19167730	     14.80956502	     -4.51883486	      9.18568855	     13.88714414	    -11.88745833	     15.28658275	     -4.25600172	    -21.22201761	      6.91150130	     -6.61215990	    -10.30323490
      3.61000000	     -9.59384491	      6.25805938	      2.54294775	     -0.51930920	     -0.02862064	      0.70506375	     44.40873281	     -8.18858131	      0.68280960	    -37.16034878	     -9.16379623	    -11.20364029	     14.89675576	     -5.05254710	      8.77196373	     13.34398582	    -11.86818588	     15.24648212	     -3.02520324	    -20.10866019	      6.78874842	     -6.25799091	    -10.49923820
